<svg width="140" height="140" viewBox="0 0 140 140" fill="none" xmlns="http://www.w3.org/2000/svg">
  <rect width="140" height="140" rx="34" fill="url(#paint0_linear_1_2)"/>
  <path d="M37 86C37 65.0132 54.0132 48 75 48H103V59H75C60.0883 59 48 71.0883 48 86V102H37V86Z" fill="white" fill-opacity="0.92"/>
  <path d="M103 54C103 74.9868 85.9868 92 65 92H37V81H65C79.9117 81 92 68.9117 92 54V38H103V54Z" fill="#C6DEF3"/>
  <circle cx="37" cy="92" r="9" fill="#F3C65A"/>
  <circle cx="103" cy="48" r="9" fill="white"/>
  <circle cx="75" cy="70" r="12" fill="#163A60"/>
  <path d="M75 58V82" stroke="white" stroke-width="6" stroke-linecap="round"/>
  <path d="M63 70H87" stroke="white" stroke-width="6" stroke-linecap="round"/>
  <defs>
    <linearGradient id="paint0_linear_1_2" x1="70" y1="0" x2="70" y2="140" gradientUnits="userSpaceOnUse">
      <stop stop-color="#0F365C"/>
      <stop offset="1" stop-color="#0E5CA7"/>
    </linearGradient>
  </defs>
</svg>
